<svg width="160" height="160" viewBox="0 0 160 160" fill="none" xmlns="http://www.w3.org/2000/svg">
<path d="M88.235 108.587C84.866 106.396 83.848 104.267 83.555 103.384L83.443 102.957L83.424 102.979C83.269 103.156 82.123 104.369 79.926 104.422V104.427H79.907L79.897 104.426H79.89L79.853 104.424L79.809 104.426L79.78 104.427V104.422C77.582 104.368 76.437 103.156 76.282 102.979L76.263 102.957L76.151 103.384C75.858 104.267 74.84 106.397 71.471 108.587C62.611 114.349 62.116 120.161 62.089 120.815C62.286 111.851 64.075 106.346 66.311 102.957L66.312 102.959C69.008 98.876 72.354 97.866 74.352 97.583C77.349 97.16 79.258 98.578 79.853 99.107C80.448 98.578 82.358 97.16 85.354 97.583C87.353 97.866 90.699 98.876 93.394 102.959L93.396 102.957C95.632 106.345 97.42 111.849 97.618 120.812C97.589 120.149 97.086 114.344 88.235 108.587Z" fill="white"/>
<path d="M88.32 124.178C87.6403 125.32 86.8916 126.42 86.078 127.471C81.975 132.758 79.778 138.267 79.778 141.027H79.768C79.768 138.267 77.572 132.758 73.469 127.471C72.6559 126.42 71.9075 125.32 71.228 124.178C68.916 120.302 70.01 115.36 73.778 112.771C74.9112 111.999 75.7616 110.877 76.2 109.578C76.701 108.079 78.137 107.063 79.76 107.052H79.785C81.409 107.063 82.845 108.08 83.346 109.579C83.7849 110.878 84.6347 111.999 85.767 112.772C89.536 115.361 90.629 120.303 88.318 124.179L88.32 124.178ZM69.574 87.37L67.946 88.109L67.914 88.125L66.64 88.826C64.475 90.127 63.57 91.273 63.57 91.273C63.153 89.058 61.572 86.532 59.77 83.656C56.673 78.707 52.927 72.723 53.346 65.509L59.184 64.881C58.98 64.641 58.79 64.4 58.614 64.164C58.364 63.831 58.8 63.416 59.122 63.679C60.621 64.907 62.402 65.909 63.865 65.909C66.103 65.909 68.015 63.621 68.015 63.621C68.015 63.621 66.17 61.751 63.865 61.751C62.578 61.751 60.645 62.303 59.19 62.789C58.812 62.917 58.555 62.404 58.886 62.18C60.203 61.29 62.142 60.283 64.179 60.283C67.41 60.283 72.287 65.731 74.024 67.671L74.025 67.672C74.249 67.922 74.421 68.115 74.53 68.229L74.215 80.57C71.251 80.434 69.045 82.238 68.485 84.39C67.925 86.542 69.575 87.368 69.575 87.368L69.574 87.37Z" fill="white"/>
<path d="M88.46 86.202C88.0521 86.4889 87.5861 86.6828 87.0951 86.7701C86.6041 86.8573 86.0999 86.8358 85.618 86.707L84.512 86.413L84.486 86.407L84.439 86.58C83.84 88.795 81.978 90.406 79.999 90.43C78.02 90.406 76.159 88.795 75.559 86.58L75.512 86.407L74.381 86.707C73.8989 86.8361 73.3943 86.8578 72.9029 86.7705C72.4115 86.6832 71.9452 86.4892 71.537 86.202C71.1803 85.9502 70.9375 85.5675 70.8616 85.1374C70.7858 84.7074 70.883 84.2647 71.132 83.906C71.446 83.4537 71.9101 83.1272 72.4418 82.9845C72.9736 82.8417 73.5387 82.8918 74.037 83.126L76.193 84.133L76.627 74.911C76.821 70.801 76.763 66.637 76.457 62.532C76.381 61.5753 75.9481 60.682 75.2442 60.0296C74.5403 59.3772 73.6168 59.0133 72.657 59.01H62.158C61.518 59.01 60.881 59.065 60.254 59.17V59.172C58.4555 59.4757 56.7524 60.1944 55.28 61.271L55.274 61.275L55.266 61.281H55.264L55.26 61.285L55.258 61.287L55.254 61.289L55.252 61.291L55.249 61.293C55.135 61.377 55.022 61.463 54.91 61.552L54.874 61.582C54.772 61.662 54.671 61.746 54.572 61.832L54.536 61.862C54.433 61.952 54.334 62.042 54.234 62.135L54.218 62.15C54.202 62.1646 54.1863 62.1796 54.171 62.195C54.071 62.289 53.972 62.384 53.876 62.483C55.019 57.164 56.591 52.393 58.548 48.298C60.368 44.491 62.533 41.245 64.98 38.649C67.25 36.242 69.752 34.403 72.416 33.184C74.875 32.059 77.425 31.481 79.996 31.462H80.032C82.592 31.486 85.13 32.063 87.577 33.183C90.242 34.403 92.743 36.241 95.013 38.648C97.46 41.244 99.623 44.489 101.444 48.297C103.402 52.391 104.974 57.164 106.117 62.482C106.02 62.3847 105.922 62.289 105.822 62.195L105.8 62.174L105.789 62.164L105.759 62.135C105.66 62.0427 105.559 61.952 105.457 61.863L105.442 61.85L105.432 61.842L105.42 61.832C105.321 61.746 105.22 61.662 105.118 61.58L105.101 61.566L105.098 61.565L105.089 61.557L105.085 61.554L105.081 61.551C104.97 61.4623 104.857 61.376 104.743 61.292L104.739 61.289L104.733 61.285L104.728 61.281L104.712 61.269C103.24 60.1922 101.537 59.4738 99.738 59.171V59.169C99.1089 59.0631 98.472 59.0096 97.834 59.009H87.337C86.3771 59.0123 85.4535 59.3764 84.7496 60.029C84.0456 60.6816 83.6128 61.5751 83.537 62.532C83.2298 66.6508 83.1731 70.7844 83.367 74.91L83.802 84.132L85.958 83.125C86.4563 82.8908 87.0215 82.8407 87.5533 82.9835C88.085 83.1262 88.549 83.4527 88.863 83.905C89.112 84.2638 89.2091 84.7066 89.133 85.1366C89.0569 85.5667 88.814 85.9493 88.457 86.201H88.461L88.46 86.202Z" fill="white"/>
<path d="M96.4301 91.273C96.4301 91.273 95.5231 90.127 93.3601 88.826L92.0851 88.125L92.0531 88.109L90.4251 87.369C90.4251 87.369 92.0751 86.544 91.5151 84.391C90.9551 82.238 88.7491 80.436 85.7851 80.572C85.7851 80.572 85.1991 68.545 86.1531 67.548C86.3269 67.3613 86.4979 67.1719 86.6661 66.98C88.3041 65.134 92.6101 60.285 95.8211 60.285C97.8571 60.285 99.7971 61.291 101.114 62.182C101.445 62.405 101.188 62.917 100.81 62.792C99.3541 62.304 97.4221 61.752 96.1351 61.752C93.8301 61.752 91.9851 63.622 91.9851 63.622C91.9851 63.622 93.8971 65.912 96.1351 65.912C97.5971 65.912 99.3791 64.908 100.878 63.682C101.2 63.417 101.636 63.832 101.386 64.166C101.21 64.402 101.02 64.643 100.816 64.883L106.654 65.511C107.073 72.724 103.327 78.708 100.23 83.656C98.4291 86.533 96.8471 89.059 96.4301 91.273Z" fill="white"/>
<path fill-rule="evenodd" clip-rule="evenodd" d="M80 0C35.817 0 0 35.817 0 80C0 124.183 35.817 160 80 160C124.183 160 160 124.183 160 80C160 35.817 124.183 0 80 0ZM82.775 6.562C82.7745 7.32008 82.4729 8.04692 81.9366 8.58268C81.4002 9.11844 80.6731 9.41927 79.915 9.419C78.335 9.419 77.055 8.14 77.055 6.562C77.0551 6.1866 77.1292 5.8149 77.273 5.46814C77.4168 5.12137 77.6276 4.80634 77.8932 4.54103C78.1587 4.27572 78.474 4.06533 78.8209 3.92188C79.1678 3.77843 79.5396 3.70474 79.915 3.705C81.495 3.705 82.775 4.985 82.775 6.562ZM14.021 40.04C12.441 40.04 11.161 41.32 11.161 42.897C11.1618 43.655 11.4635 44.3817 11.9997 44.9174C12.536 45.4531 13.263 45.754 14.021 45.754C14.779 45.754 15.506 45.4531 16.0423 44.9174C16.5785 44.3817 16.8802 43.655 16.881 42.897C16.8809 42.5216 16.8068 42.1499 16.663 41.8031C16.5192 41.4564 16.3084 41.1413 16.0429 40.876C15.7773 40.6107 15.462 40.4003 15.1151 40.2569C14.7682 40.1134 14.3964 40.0397 14.021 40.04ZM16.881 115.544C16.8809 115.919 16.8068 116.291 16.663 116.638C16.5192 116.985 16.3084 117.3 16.0429 117.565C15.7773 117.83 15.462 118.041 15.1151 118.184C14.7682 118.328 14.3964 118.401 14.021 118.401C13.2629 118.401 12.5358 118.1 11.9994 117.565C11.4631 117.029 11.1615 116.302 11.161 115.544C11.1613 115.169 11.2354 114.797 11.3793 114.45C11.5232 114.104 11.7339 113.789 11.9995 113.524C12.2651 113.258 12.5803 113.048 12.9271 112.905C13.274 112.761 13.6457 112.688 14.021 112.688C15.601 112.688 16.881 113.967 16.881 115.544ZM145.98 118.401C145.605 118.401 145.233 118.328 144.886 118.184C144.539 118.041 144.224 117.83 143.958 117.565C143.693 117.3 143.482 116.985 143.338 116.638C143.194 116.291 143.12 115.919 143.12 115.544C143.12 115.169 143.194 114.797 143.338 114.45C143.482 114.104 143.693 113.789 143.958 113.524C144.224 113.258 144.539 113.048 144.886 112.905C145.233 112.761 145.605 112.688 145.98 112.688C147.56 112.688 148.84 113.967 148.84 115.544C148.839 116.302 148.538 117.029 148.002 117.565C147.465 118.1 146.738 118.401 145.98 118.401ZM143.12 42.897C143.12 42.5216 143.194 42.1499 143.338 41.8031C143.482 41.4564 143.693 41.1413 143.958 40.876C144.224 40.6107 144.539 40.4003 144.886 40.2569C145.233 40.1134 145.605 40.0397 145.98 40.04C147.56 40.04 148.84 41.32 148.84 42.897C148.839 43.655 148.538 44.3817 148.001 44.9174C147.465 45.4531 146.738 45.754 145.98 45.754C145.222 45.754 144.495 45.4531 143.959 44.9174C143.422 44.3817 143.121 43.655 143.12 42.897ZM59.11 107.233L59.125 107.188C59.1275 107.181 59.1302 107.175 59.133 107.168L59.141 107.146L59.155 107.107V107.104C59.1713 107.055 59.189 107.007 59.208 106.959L59.215 106.94L59.238 106.878L59.318 106.662L59.432 106.414C61.962 101.07 68.728 96.559 72.782 95.532C76.828 94.507 79.749 96.66 79.85 96.736L79.84 96.729L79.851 96.737V96.74L79.853 96.738L79.855 96.74V96.737C79.948 96.667 82.872 94.506 86.924 95.532C90.978 96.558 97.744 101.07 100.274 106.414L100.3 106.47L100.313 106.499L100.337 106.55L100.362 106.606L100.389 106.663L100.423 106.758L100.459 106.854L100.5 106.965L100.501 106.967L100.51 106.992L100.521 107.022L100.522 107.023L100.523 107.026L100.526 107.036L100.527 107.039L100.53 107.045L100.541 107.075L100.545 107.088L100.551 107.104L100.557 107.12L100.567 107.145L100.58 107.182L100.64 107.35L100.559 107.125L100.552 107.108C100.671 107.489 100.767 107.961 100.84 108.516C101.507 113.392 100.756 125.258 96.274 135.673C94.634 138.796 93.141 141.511 91.764 143.852C94.8815 138.551 96.7785 132.621 97.317 126.495C97.471 124.723 97.573 122.831 97.617 120.815V120.825L97.616 120.856C97.576 121.888 97.248 130.375 83.446 140.21C82.254 141.06 82.729 142.929 84.186 143.097L91.699 143.963C90.337 146.272 89.091 148.21 87.928 149.81C87.808 149.745 87.565 149.563 87.227 149.31L87.226 149.309C85.737 148.197 82.414 145.713 79.768 145.713H79.766C77.357 145.713 74.384 147.862 72.748 149.045L72.747 149.046C72.29 149.377 71.937 149.632 71.73 149.743C70.58 148.157 69.349 146.24 68.007 143.964L75.521 143.098C76.977 142.931 77.452 141.061 76.26 140.211C62.458 130.375 62.13 121.889 62.09 120.857V120.829L62.089 120.815C62.133 122.831 62.236 124.722 62.389 126.495C62.9266 132.616 64.8204 138.54 67.933 143.837C66.56 141.5 65.071 138.79 63.433 135.674C58.952 125.26 58.2 113.395 58.867 108.518C58.939 107.963 59.037 107.491 59.155 107.109L59.11 107.233ZM59.11 107.233L59.067 107.351V107.349L59.11 107.233ZM38.487 43.324C41.266 40.507 46.994 34.423 52.327 27.028C52.6 26.65 52.873 26.281 53.147 25.922C53.5 25.46 53.842 24.992 54.181 24.519L18.467 41.697C18.6102 42.2267 18.6572 42.7777 18.606 43.324H38.487ZM142.422 39.976C131.617 23.403 114.376 11.405 94.242 7.507L103.884 21.711L142.27 40.172L142.263 40.182L142.261 40.186L142.259 40.188L142.258 40.19C142.311 40.117 142.366 40.046 142.422 39.976ZM105.818 24.519L106.852 25.922C107.125 26.282 107.399 26.65 107.672 27.028C113.005 34.422 118.732 40.506 121.512 43.324H141.395C141.345 42.7774 141.391 42.2263 141.533 41.696L105.818 24.519ZM129.686 117.835L127.11 124.234L141.633 117.066L141.638 117.08C141.64 117.086 141.642 117.092 141.645 117.098L141.654 117.123L141.665 117.151C141.414 116.481 141.323 115.761 141.401 115.049C117.075 121.272 116.321 70.105 116.312 69.396V69.41C115.994 109.899 130.2 115.343 130.2 115.343C108.957 110.766 110.218 91.967 111.222 76.993C111.422 74.013 111.612 71.183 111.612 68.647C111.612 53.377 102.511 42.867 102.511 42.867C105.363 44.6927 108.418 46.1797 111.614 47.298L111.615 47.299L111.616 47.301L111.618 47.306L111.622 47.312L111.625 47.318L111.631 47.327L111.639 47.341C111.632 47.329 111.626 47.317 111.618 47.306L111.617 47.303L111.615 47.299C113.543 47.9758 115.517 48.5139 117.522 48.909C117.724 48.945 117.923 48.979 118.121 49.012L118.125 49.022C121.519 49.634 123.682 49.576 123.682 49.576C123.682 49.576 126.709 56.826 127.95 70.023L127.979 70.328L128.036 70.943L142.973 46.378C142.529 45.9965 142.162 45.5339 141.892 45.015H123.22C112.207 45.015 98.157 35.092 91.135 30.133L91.127 30.127C90.617 29.767 90.143 29.432 89.71 29.13C89.564 29.027 89.42 28.928 89.277 28.83L89.274 28.829C89.037 28.669 88.807 28.518 88.579 28.371C84.523 25.768 81.925 25.389 80.794 25.38V18.182C83.539 18.361 92.037 19.122 102.849 29.733C102.849 29.733 93.483 16.893 80.794 16.961V12.698C89.354 13.377 96.422 15.45 102.507 21.981L92.231 7.14C89.6741 6.71762 87.0969 6.42856 84.51 6.274C84.5485 6.90105 84.4582 7.52935 84.2447 8.12018C84.0311 8.71101 83.6989 9.25187 83.2684 9.70943C82.8379 10.167 82.3183 10.5316 81.7416 10.7807C81.1649 11.0298 80.5432 11.1582 79.915 11.158C79.2876 11.1583 78.6667 11.0303 78.0906 10.7818C77.5145 10.5333 76.9952 10.1697 76.5648 9.71322C76.1343 9.25674 75.8018 8.71705 75.5875 8.12734C75.3733 7.53762 75.2819 6.91033 75.319 6.284C72.7895 6.44076 70.2695 6.72613 67.769 7.139L57.49 21.98C63.575 15.45 70.643 13.376 79.203 12.697V16.96C66.514 16.893 57.148 29.732 57.148 29.732C67.96 19.122 76.458 18.36 79.203 18.182V25.379C79.0261 25.3827 78.8493 25.3921 78.673 25.407H78.658L78.65 25.409H78.642C77.178 25.549 74.392 26.258 70.288 29.128C69.854 29.431 69.378 29.768 68.865 30.13C61.843 35.089 47.791 45.013 36.778 45.013H18.106C17.835 45.534 17.467 45.996 17.026 46.376L31.962 70.942L31.98 70.747L32 70.544L32.031 70.206L32.048 70.021C33.289 56.825 36.316 49.574 36.316 49.574C36.316 49.574 38.479 49.632 41.873 49.02L41.867 49.034L41.864 49.041L41.86 49.051L41.854 49.066L41.851 49.072L41.863 49.043L41.867 49.034L41.87 49.027L41.874 49.019L41.877 49.009C42.075 48.977 42.274 48.943 42.477 48.907C44.4819 48.5119 46.4559 47.9739 48.384 47.297C51.58 46.1779 54.6349 44.6906 57.487 42.865C57.487 42.865 48.432 53.323 48.387 68.531V68.588L48.386 68.619V68.646C48.386 71.181 48.576 74.01 48.776 76.991C49.78 91.965 51.041 110.763 29.798 115.341C29.798 115.341 44.004 109.897 43.686 69.409V69.395C43.677 70.103 42.923 121.27 18.598 115.048C18.6751 115.753 18.5868 116.466 18.34 117.131L18.344 117.119L18.349 117.108C18.3539 117.093 18.3592 117.079 18.365 117.064L32.908 124.242L30.337 117.804C31.9223 117.464 33.4826 117.016 35.007 116.464C37.092 115.703 38.991 114.762 40.687 113.647C41.7165 112.975 42.6885 112.218 43.593 111.385C45.164 109.925 46.5148 108.245 47.603 106.397H47.606C47.606 106.397 45.715 120.01 49.068 132.217L63.942 139.559C63.522 138.759 63.286 138.28 63.279 138.264C56.395 125.03 52.899 113.74 52.889 104.707C52.879 96.276 55.916 92.194 57.727 90.511C59.235 89.109 60.754 88.602 61.296 88.935C61.988 89.36 59.578 95.535 58.206 98.742L58.254 98.766C60.626 94.919 66.071 91.265 68.643 89.679L68.711 89.633C69.301 89.229 72.921 86.747 76.191 90.413C77.907 92.339 79.756 92.251 79.849 92.245H79.852C79.945 92.251 81.794 92.339 83.511 90.413C86.777 86.75 90.394 89.225 90.988 89.633L91.021 89.654L91.034 89.664L91.058 89.679C93.63 91.265 99.075 94.919 101.447 98.766L101.494 98.742C100.123 95.536 97.713 89.361 98.405 88.935C98.947 88.602 100.466 89.109 101.974 90.511C103.785 92.194 106.822 96.276 106.812 104.707C106.801 113.74 103.306 125.03 96.422 138.264C96.414 138.281 96.14 138.837 95.655 139.755L110.791 132.285C110.795 132.265 110.801 132.245 110.808 132.225C114.18 120.024 112.275 106.426 112.275 106.426H112.279C113.377 108.276 114.739 109.957 116.321 111.415C117.234 112.248 118.214 113.005 119.251 113.677C120.961 114.792 122.874 115.733 124.977 116.494C126.455 117.029 128.026 117.477 129.684 117.834L129.686 117.835ZM88.548 151.158L90.437 148.503C91.7876 146.502 93.057 144.447 94.242 142.343L110.109 134.512C107.083 143.418 100.884 151.028 88.548 151.158ZM146.825 111.024V47.704C151.701 57.597 154.441 68.731 154.441 80.504C154.441 91.491 152.055 101.921 147.773 111.308C147.467 111.179 147.148 111.084 146.822 111.024H146.825ZM145.132 111.025C144.383 111.163 143.681 111.486 143.089 111.965C131.982 101.67 129.546 85.939 128.309 73.755L144.437 47.232C144.661 47.312 144.894 47.374 145.132 47.418V111.025ZM65.758 7.505C45.623 11.4 28.382 23.402 17.577 39.974C17.63 40.04 17.68 40.106 17.73 40.174L56.114 21.71L65.758 7.503V7.505ZM12.225 111.307C7.945 101.921 5.558 91.491 5.558 80.504C5.558 68.731 8.298 57.597 13.174 47.703V111.023H13.177C12.8506 111.083 12.5307 111.178 12.225 111.307ZM15.563 47.23L31.69 73.754H31.689C30.452 85.939 28.016 101.671 16.909 111.966C16.3171 111.488 15.6152 111.165 14.867 111.026V47.418C15.107 47.374 15.339 47.311 15.563 47.23ZM142.455 118.5C142.745 118.844 143.084 119.146 143.461 119.394H143.463C137.393 129.249 129.119 137.561 119.291 143.676L119.289 143.675L119.288 143.673L119.287 143.672L119.286 143.671L126.164 126.588L142.483 118.534L142.482 118.532L142.48 118.531L142.477 118.527C142.475 118.525 142.473 118.523 142.472 118.52L142.47 118.518L142.455 118.5ZM17.519 118.533L33.849 126.592L40.659 143.641L40.657 143.642C30.853 137.531 22.5982 129.231 16.54 119.394C16.9164 119.147 17.2546 118.847 17.544 118.502L17.54 118.507L17.528 118.522L17.524 118.526L17.519 118.533ZM79.866 96.728C79.864 96.7289 79.862 96.7299 79.86 96.731L79.856 96.734L79.858 96.733L79.86 96.731L79.863 96.729L79.866 96.728ZM71.149 151.128C70.4994 150.269 69.8722 149.393 69.268 148.502C67.8743 146.436 66.5665 144.314 65.348 142.14L49.744 134.439C52.741 143.363 58.892 150.997 71.149 151.128Z" fill="white"/>
</svg>
